<svg xmlns="http://www.w3.org/2000/svg" xmlns:xlink="http://www.w3.org/1999/xlink" viewBox="0 0 2271.29 628.01"><defs><style>.cls-1,.cls-2{stroke-miterlimit:10;}.cls-1{fill:url(#linear-gradient);stroke:url(#linear-gradient-2);}.cls-2{fill:url(#linear-gradient-3);stroke:url(#linear-gradient-4);}.cls-3,.cls-4,.cls-5,.cls-6,.cls-7,.cls-8{fill:#231f20;}.cls-3{stroke:url(#linear-gradient-5);}.cls-4{stroke:url(#linear-gradient-6);}.cls-5{stroke:url(#linear-gradient-7);}.cls-6{stroke:url(#linear-gradient-8);}.cls-7{stroke:url(#linear-gradient-9);}.cls-8{stroke:url(#linear-gradient-10);}</style><linearGradient id="linear-gradient" x1="1741.66" y1="241.94" x2="2270.79" y2="241.94" gradientUnits="userSpaceOnUse"><stop offset="0" stop-color="#2b3990"/><stop offset="1" stop-color="#1c75bc"/></linearGradient><linearGradient id="linear-gradient-2" x1="1740.94" y1="241.85" x2="2271.29" y2="241.85" xlink:href="#linear-gradient"/><linearGradient id="linear-gradient-3" x1="1377.79" y1="386.08" x2="1906.91" y2="386.08" xlink:href="#linear-gradient"/><linearGradient id="linear-gradient-4" x1="1377.29" y1="386.18" x2="1907.63" y2="386.18" xlink:href="#linear-gradient"/><linearGradient id="linear-gradient-5" x1="0" y1="340.09" x2="166.45" y2="340.09" xlink:href="#linear-gradient"/><linearGradient id="linear-gradient-6" x1="226.29" y1="292.52" x2="410.29" y2="292.52" xlink:href="#linear-gradient"/><linearGradient id="linear-gradient-7" x1="468.61" y1="338.91" x2="715.7" y2="338.91" xlink:href="#linear-gradient"/><linearGradient id="linear-gradient-8" x1="767.29" y1="336.8" x2="880.41" y2="336.8" xlink:href="#linear-gradient"/><linearGradient id="linear-gradient-9" x1="897.74" y1="339.28" x2="1111.66" y2="339.28" xlink:href="#linear-gradient"/><linearGradient id="linear-gradient-10" x1="1175.29" y1="336.8" x2="1287.44" y2="336.8" xlink:href="#linear-gradient"/></defs><g id="Layer_2" data-name="Layer 2"><g id="Layer_1-2" data-name="Layer 1"><path class="cls-1" d="M2270.79,222.49V477.2c-57.06,10.41-102.31,5.13-128.92,0a363.73,363.73,0,0,1-63.12-18.67c-29.24-11.56-49.27-24-72.53-38.49a656.46,656.46,0,0,1-54.35-37.91,336.77,336.77,0,0,1-27.14-23.62L1741.66,182.1,1929.87.69,2110.64,175c23.32,22.41,52.37,39,84.51,46,2.38.51,4.82,1,7.32,1.46A194.65,194.65,0,0,0,2270.79,222.49Z"/><path class="cls-2" d="M1906.91,445.88l-188.2,181.43L1537.94,453c-23.32-22.42-52.37-38.92-84.53-46-2.36-.57-4.8-1-7.3-1.45a192.72,192.72,0,0,0-68.32,0V150.86c57-10.47,102.31-5.14,128.92,0a355.28,355.28,0,0,1,63.11,18.61c29.25,11.61,49.28,24,72.53,38.54,15,9.33,33.6,21.85,54.35,37.85a335.06,335.06,0,0,1,27.14,23.62Z"/><path class="cls-3" d="M166,392.16a66,66,0,0,1-5.66,27.21q-5.17,11.73-16.5,21.57A71.78,71.78,0,0,1,118.34,455q-14.15,4.69-33.95,4.7-26.4,0-47.14-11.13a98.19,98.19,0,0,1-34.4-29.77A13.38,13.38,0,0,1,.5,411.76c0-1.24.78-3,2.35-5.17a6.32,6.32,0,0,1,5.64-2.82q2.82,0,7,5.17a59.11,59.11,0,0,0,9.87,11.28A71.59,71.59,0,0,0,40,431.5,80.41,80.41,0,0,0,59.72,440q10.34,3.3,26.33,3.29,28.65,0,46.53-13.59Q150,416.54,150,393.57q0-15.46-10.34-25.31a88.73,88.73,0,0,0-25.85-16.39,355.71,355.71,0,0,0-33.84-11.26A160.33,160.33,0,0,1,46.09,328a97.56,97.56,0,0,1-25.85-19.22Q9.91,298,9.9,278.28l-.47.94a51,51,0,0,1,5.64-24,61.38,61.38,0,0,1,15.51-18.33,75.37,75.37,0,0,1,24-12.23,104.21,104.21,0,0,1,30.09-4.23q22.08,0,39,8.74,17.85,9.13,26.32,19,2.82,3.77,2.82,7.05a7.54,7.54,0,0,1-1.88,4.7,7.13,7.13,0,0,1-5.64,2.82,9.88,9.88,0,0,1-7.05-3.29A117,117,0,0,0,118,244q-13.64-8.46-34.32-8.46a108.67,108.67,0,0,0-21.15,1.87,54.61,54.61,0,0,0-18.8,7A36.74,36.74,0,0,0,30.58,258q-5.17,8.91-5.17,21.11,0,15,10.38,23.92a91.6,91.6,0,0,0,25.94,15.47q8,3.28,16.27,6.11t17.68,5.62q9.43,2.82,17.69,6.1t16.26,7a85,85,0,0,1,25.94,18.77Q166,372.93,166,392.16Z"/><path class="cls-4" d="M409.79,314.38V448a7.73,7.73,0,0,1-2.35,5.65q-1.89,1.88-5.65,1.88-8,0-8-7.53v-134a90.26,90.26,0,0,0-4.69-29.54q-5.16-15-14.54-24.86a75.7,75.7,0,0,0-56.27-23.45q-18.77,0-32.36,6.1A78.65,78.65,0,0,0,262,259q-9.39,9.85-14.54,24.86a90,90,0,0,0-4.69,29.54V447.67q0,7.53-8,7.52a8,8,0,0,1-8-8V137.56a8,8,0,0,1,8-8c5.33,0,8,2.52,8,7.53v129l-.94,1.88A87.9,87.9,0,0,1,270,234.63Q288.75,221,317.85,221q23.92,0,40.81,7.5a80.32,80.32,0,0,1,28.61,20.17,83.79,83.79,0,0,1,16.89,29.56A113.55,113.55,0,0,1,409.79,314.38Z"/><path class="cls-5" d="M706.73,439.5a16.59,16.59,0,0,1-8.94-2.34,12.27,12.27,0,0,1-5.18-6.11,28.07,28.07,0,0,1-1.41-4.46c-.31-1.41-.63-2.9-.94-4.46a22.2,22.2,0,0,1-.47-4.46V231.26a7.71,7.71,0,0,0-2.35-5.63q-1.89-1.87-5.65-1.88c-5.34,0-8,2.52-8,7.53v51.23S653.2,247.89,637.85,236q-23-17.39-57.82-17.4a107.64,107.64,0,0,0-79,34.79,121.4,121.4,0,0,0-23.5,38.07,131.61,131.61,0,0,0-8.46,47.47q0,25.86,8.46,47.47a118.66,118.66,0,0,0,23,38.07,98.5,98.5,0,0,0,35.25,25.39,107.74,107.74,0,0,0,44.18,9.4q32.44,0,56.88-17.86c15.66-11.59,36.88-46.07,36.88-46.07v17.84q0,17.88,6.12,29.65t26.82,11.76q8.47,0,8.47-7.29C715.2,442.1,712.38,439.5,706.73,439.5Zm-40.68-55.14q-7,19.32-19.74,32.51a90.07,90.07,0,0,1-29.61,21.2,88.86,88.86,0,0,1-37.61,8l.94-1.89a96.09,96.09,0,0,1-38.73-8,86.11,86.11,0,0,1-30.23-21.67,92,92,0,0,1-19.36-33,130.34,130.34,0,0,1,0-82,104.12,104.12,0,0,1,18.38-33.46,85.81,85.81,0,0,1,29.68-22.6Q557.18,235,579.33,235a82,82,0,0,1,37.23,8.48,99.46,99.46,0,0,1,29.68,22.6A100.8,100.8,0,0,1,666,300a125.23,125.23,0,0,1,7.07,42.4Q673.1,365.54,666.05,384.36Z"/><path class="cls-6" d="M879.91,226.57q0,8-8,8-41.85,0-64.87,24.44c-15.35,16.29-23.26,66.74-23.26,66.74V446.54c0,5-2.6,7.53-7.77,7.53q-8.24,0-8.23-7.53V231.2l.46.91q0-7.31,8-7.31,7.54,0,7.55,7.31V275s19.81-30.86,32.66-40.89q18.79-14.57,54.53-14.58Q879.91,219.52,879.91,226.57Z"/><path class="cls-7" d="M1103.17,277.47A89,89,0,0,0,1082,247.39a99.3,99.3,0,0,0-32.44-20.68q-18.33-7.52-41.36-7.53-24,0-43.24,8.94A108.35,108.35,0,0,0,930.2,253.5a121.4,121.4,0,0,0-23.5,38.07,133,133,0,0,0-8.46,47.94q0,25.86,7.52,47a103.11,103.11,0,0,0,22.56,38.07A98.5,98.5,0,0,0,963.57,450a111.06,111.06,0,0,0,45.59,9.4q29.14,0,52.64-10.34,24-10.33,37.14-24.45a9.89,9.89,0,0,0,3.29-7.05c0-1.56-.79-3.44-2.35-5.64a7.16,7.16,0,0,0-5.64-2.82c-1.89,0-3.93,1.11-6.11,3.29a125.93,125.93,0,0,1-33.85,23q-18.33,8.94-45.12,8.94-23.5,0-40.89-8.47a83,83,0,0,1-29.61-23,103.18,103.18,0,0,1-18.33-34.31q-6.12-18.79-6.11-42.3l.94-1.41h179.55q10.8,0,13.63-5.64t2.82-15A91.21,91.21,0,0,0,1103.17,277.47Zm-9.87,44.34H914.69a97.36,97.36,0,0,1,32-63.58,87,87,0,0,1,28.2-16.82,93.25,93.25,0,0,1,32-5.61l.47-.47q20.21,0,36.66,7.48a94.73,94.73,0,0,1,28.2,19.63A75.5,75.5,0,0,1,1089.07,290,73.21,73.21,0,0,1,1093.3,321.81Z"/><path class="cls-8" d="M1286.94,226.57q0,8-8,8-41.84,0-64.86,24.44c-15.36,16.29-22.3,66.74-22.3,66.74V446.54c0,5-2.6,7.53-7.77,7.53q-8.24,0-8.23-7.53V231.2l.46.91q0-7.31,8-7.31,7.54,0,7.55,7.31V275s18.85-30.86,31.7-40.89q18.79-14.57,54.52-14.58Q1286.94,219.52,1286.94,226.57Z"/></g></g></svg>